<?xml version="1.0" encoding="utf-8"?>
<!-- Generator: Adobe Illustrator 26.0.1, SVG Export Plug-In . SVG Version: 6.00 Build 0)  -->
<svg version="1.1" id="Layer_1" xmlns="http://www.w3.org/2000/svg" xmlns:xlink="http://www.w3.org/1999/xlink" x="0px" y="0px"
	 viewBox="0 0 229.6 81.2" style="enable-background:new 0 0 229.6 81.2;" xml:space="preserve">
<style type="text/css">
	.st0{fill:#FF0000;}
	.st1{fill:#FFFFFF;}
	.st2{font-family:'Calibri';}
	.st3{font-size:56.8391px;}
</style>
<g id="Layer_2_00000096043548503965633970000007456092328744816785_">
	<g id="Layer_1-2">
		<rect class="st0" width="229.6" height="81.2"/>
		<path class="st1" d="M26.1,59.6c0,0,0.4,1.3,1.8,0.3L31,46.8c0,0,1.4,0.9,4.9,1l-1.6,15.1c0,0,0.5,1.4,1.7,0.2l2.4-15.3h1.7
			l2.6,11.1c0.2,0.5,0.8,0.8,1.3,0.5c0.2-0.1,0.4-0.3,0.5-0.5l-2.3-11.1h5.1l3.2,13.3c0,0,1.3,1.1,1.8-0.2l-2.7-13.8
			c2.3-1.1,3.8-3.3,3.9-5.8c0,0,0.3-2.4-2.4-5.1l-1.9-1.1c-1-0.7-1.7-1.7-2.1-2.8l-3-9.1c0,0-2.8-6.2-9.8-5.5
			c-3.4,0.3-6.4,2.3-7.9,5.4c0,0-1.7,4.8-1.7,13c0,0-0.5,6.5,4.1,9.4L26.1,59.6z"/>
		<text transform="matrix(1 0 0 1 60.2694 57.8261)" class="st1 st2 st3">WNER</text>
	</g>
</g>
</svg>
