<svg width="82" height="94" viewBox="0 0 82 94" fill="none" xmlns="http://www.w3.org/2000/svg">
<path fill-rule="evenodd" clip-rule="evenodd" d="M79.7944 23.1694C80.9665 21.9973 81.625 20.4076 81.625 18.75V12.5C81.625 10.8424 80.9665 9.25268 79.7944 8.08058C78.6223 6.90848 77.0326 6.25 75.375 6.25H53.5C53.5 4.5924 52.8415 3.00269 51.6694 1.83058C50.4973 0.65848 48.9076 0 47.25 0H34.75C33.0924 0 31.5027 0.65848 30.3306 1.83058C29.1585 3.00269 28.5 4.5924 28.5 6.25H6.625C4.9674 6.25 3.37768 6.90848 2.20558 8.08058C1.03348 9.25268 0.375 10.8424 0.375 12.5V18.75C0.375 20.4076 1.03348 21.9973 2.20558 23.1694C3.37768 24.3415 4.9674 25 6.625 25H9.75V81.25C9.75 84.5652 11.067 87.7446 13.4112 90.0888C15.7554 92.433 18.9348 93.75 22.25 93.75H59.75C63.0652 93.75 66.2446 92.433 68.5888 90.0888C70.933 87.7446 72.25 84.5652 72.25 81.25V25H75.375C77.0326 25 78.6223 24.3415 79.7944 23.1694ZM16 25.3687L16.7375 25H65.2625L66 25.3687V81.25C66 82.9076 65.3415 84.4973 64.1694 85.6694C62.9973 86.8415 61.4076 87.5 59.75 87.5H22.25C20.5924 87.5 19.0027 86.8415 17.8306 85.6694C16.6585 84.4973 16 82.9076 16 81.25V25.3687ZM6.625 12.5V18.75H75.375V12.5H6.625ZM27.5847 35.2903C26.9987 34.7042 26.2038 34.375 25.375 34.375C24.5462 34.375 23.7513 34.7042 23.1653 35.2903C22.5792 35.8763 22.25 36.6712 22.25 37.5V75C22.25 75.8288 22.5792 76.6237 23.1653 77.2097C23.7513 77.7958 24.5462 78.125 25.375 78.125C26.2038 78.125 26.9987 77.7958 27.5847 77.2097C28.1708 76.6237 28.5 75.8288 28.5 75V37.5C28.5 36.6712 28.1708 35.8763 27.5847 35.2903ZM43.2097 35.2903C42.6237 34.7042 41.8288 34.375 41 34.375C40.1712 34.375 39.3763 34.7042 38.7903 35.2903C38.2042 35.8763 37.875 36.6712 37.875 37.5V75C37.875 75.8288 38.2042 76.6237 38.7903 77.2097C39.3763 77.7958 40.1712 78.125 41 78.125C41.8288 78.125 42.6237 77.7958 43.2097 77.2097C43.7958 76.6237 44.125 75.8288 44.125 75V37.5C44.125 36.6712 43.7958 35.8763 43.2097 35.2903ZM58.8347 35.2903C59.4208 35.8763 59.75 36.6712 59.75 37.5V75C59.75 75.8288 59.4208 76.6237 58.8347 77.2097C58.2487 77.7958 57.4538 78.125 56.625 78.125C55.7962 78.125 55.0013 77.7958 54.4153 77.2097C53.8292 76.6237 53.5 75.8288 53.5 75V37.5C53.5 36.6712 53.8292 35.8763 54.4153 35.2903C55.0013 34.7042 55.7962 34.375 56.625 34.375C57.4538 34.375 58.2487 34.7042 58.8347 35.2903Z" fill="black"/>
</svg>
